<?xml version="1.0" encoding="UTF-8" standalone="no"?>
<!-- Created with Inkscape (http://www.inkscape.org/) -->

<svg
   width="140.38284mm"
   height="64.097343mm"
   viewBox="0 0 140.38284 64.097343"
   version="1.1"
   id="svg1"
   xml:space="preserve"
   inkscape:version="1.4 (86a8ad7, 2024-10-11)"
   sodipodi:docname="ciseaux-blancs.svg"
   xmlns:inkscape="http://www.inkscape.org/namespaces/inkscape"
   xmlns:sodipodi="http://sodipodi.sourceforge.net/DTD/sodipodi-0.dtd"
   xmlns="http://www.w3.org/2000/svg"
   xmlns:svg="http://www.w3.org/2000/svg"><sodipodi:namedview
     id="namedview1"
     pagecolor="#ffffff"
     bordercolor="#000000"
     borderopacity="0.25"
     inkscape:showpageshadow="2"
     inkscape:pageopacity="0.0"
     inkscape:pagecheckerboard="0"
     inkscape:deskcolor="#d1d1d1"
     inkscape:document-units="mm"
     inkscape:zoom="0.51339147"
     inkscape:cx="98.365484"
     inkscape:cy="289.25296"
     inkscape:window-width="1920"
     inkscape:window-height="1017"
     inkscape:window-x="-8"
     inkscape:window-y="-8"
     inkscape:window-maximized="1"
     inkscape:current-layer="layer1" /><defs
     id="defs1" /><g
     inkscape:label="Calque 1"
     inkscape:groupmode="layer"
     id="layer1"
     transform="translate(-65.010659,-97.078469)"><path
       style="fill:#ffffff"
       d="m 100.65339,161.11872 c -4.485235,-0.36825 -8.412521,-2.86176 -10.227437,-6.4936 -0.467553,-0.93563 -1.048806,-2.76271 -1.241389,-3.90212 -0.203675,-1.20503 -0.07788,-3.62135 0.240516,-4.61989 0.581355,-1.82325 1.844996,-3.77988 3.313805,-5.13113 1.497926,-1.37803 4.140501,-3.03271 6.244652,-3.91017 0.475045,-0.19809 1.019183,-0.42908 1.209203,-0.51329 0.19002,-0.0842 1.07101,-0.4389 1.95776,-0.78819 0.88675,-0.34929 4.69574,-1.86219 8.46443,-3.362 3.76869,-1.49981 8.48458,-3.37551 10.47977,-4.16824 1.99519,-0.79273 5.75236,-2.28569 8.34926,-3.3177 2.59691,-1.03201 7.15734,-2.84081 10.13429,-4.01956 2.97694,-1.17875 5.58281,-2.22037 5.79081,-2.31472 0.45325,-0.20559 0.64387,-0.21941 0.53212,-0.0386 -0.0513,0.083 -0.0316,0.10166 0.0527,0.0496 0.0742,-0.0458 0.11229,-0.11981 0.0847,-0.16439 -0.062,-0.10028 7.65896,-3.18797 8.61978,-3.44715 0.86878,-0.23435 5.09844,-0.2576 7.37654,-0.0405 2.1154,0.20155 6.16935,0.69692 6.56136,0.80176 0.32589,0.0872 0.32331,0.0904 -0.23689,0.30029 -0.75908,0.28437 -2.7246,1.04791 -5.51834,2.14368 -4.25247,1.66793 -6.39634,2.5053 -16.69853,6.52225 -0.57006,0.22228 -2.35795,0.91981 -3.9731,1.55009 -1.61515,0.63027 -3.68807,1.43362 -4.60649,1.78522 -0.91842,0.3516 -1.78152,0.69189 -1.91799,0.75621 -0.13647,0.0643 -0.31291,0.0769 -0.39207,0.028 -0.0875,-0.0541 -0.11489,-0.0419 -0.0699,0.0309 0.0407,0.0659 -0.016,0.14664 -0.12616,0.17935 -0.11013,0.0327 -1.93631,0.74302 -4.05817,1.57844 -2.12187,0.83542 -4.63529,1.82166 -5.58538,2.19165 -2.01366,0.78417 -4.84206,1.88719 -9.27056,3.61532 -1.74183,0.67971 -3.20774,1.2753 -3.25758,1.32353 -0.0499,0.0482 0.24241,0.30307 0.64944,0.56631 2.92953,1.89456 4.79547,6.18083 4.34681,9.98508 -0.35213,2.98577 -1.78375,5.78819 -4.13256,8.08957 -3.49233,3.42181 -8.22774,5.13366 -13.09544,4.73402 z m 3.52714,-0.53395 c 0.14325,-0.18266 0.13917,-0.18673 -0.0435,-0.0435 -0.19183,0.15044 -0.25284,0.24501 -0.15805,0.24501 0.0239,0 0.1146,-0.0907 0.20153,-0.20153 z m 0.68176,-2.49127 c 4.58657,-0.8779 8.51801,-4.34262 9.61998,-8.47794 0.31393,-1.17807 0.28831,-3.38763 -0.0521,-4.49133 -0.70696,-2.29229 -2.05645,-3.96614 -4.15428,-5.15281 -4.56177,-2.58045 -11.023145,-1.40903 -14.861667,2.69437 -3.939181,4.21099 -3.797432,10.18983 0.319213,13.46402 0.802155,0.638 2.692785,1.57032 3.71074,1.82986 1.677124,0.42762 3.631074,0.47588 5.418104,0.13383 z m 22.33265,-27.65073 c 0.51245,-0.265 0.8095,-0.76569 0.8095,-1.36447 0,-0.4314 -0.0655,-0.59045 -0.38046,-0.92444 -0.20925,-0.22187 -0.52052,-0.43856 -0.69173,-0.48153 -1.067,-0.2678 -2.10287,0.72691 -1.84561,1.77228 0.23412,0.95133 1.25981,1.43693 2.1083,0.99816 z m 9.33151,-2.42015 c 0.14876,-0.15835 0.24456,-0.2879 0.21289,-0.2879 -0.0317,0 -0.1793,0.12955 -0.32806,0.2879 -0.14876,0.15835 -0.24456,0.28791 -0.21289,0.28791 0.0317,0 0.1793,-0.12956 0.32806,-0.28791 z m 0.87096,-0.8925 0.33824,-0.37428 -0.37428,0.33824 c -0.34888,0.31529 -0.42721,0.41031 -0.33824,0.41031 0.0198,0 0.18824,-0.16842 0.37428,-0.37427 z m 0.9213,-0.9213 0.33824,-0.37428 -0.37428,0.33824 c -0.34888,0.31529 -0.42721,0.41031 -0.33824,0.41031 0.0198,0 0.18824,-0.16842 0.37428,-0.37427 z m 0.92129,-0.9213 0.33825,-0.37428 -0.37428,0.33824 c -0.34888,0.31529 -0.42721,0.41032 -0.33824,0.41032 0.0198,0 0.18824,-0.16843 0.37427,-0.37428 z m 0.9213,-0.9213 0.33825,-0.37428 -0.37428,0.33824 c -0.34888,0.31529 -0.42721,0.41032 -0.33824,0.41032 0.0198,0 0.18824,-0.16843 0.37427,-0.37428 z m 0.9213,-0.9213 0.33824,-0.37428 -0.37427,0.33825 c -0.34888,0.31529 -0.42722,0.41031 -0.33825,0.41031 0.0198,0 0.18825,-0.16843 0.37428,-0.37428 z m 0.9213,-0.9213 0.33824,-0.37427 -0.37428,0.33824 c -0.34887,0.31529 -0.42721,0.41031 -0.33824,0.41031 0.0198,0 0.18825,-0.16842 0.37428,-0.37428 z m 0.9213,-0.9213 0.33824,-0.37427 -0.37428,0.33824 c -0.34888,0.31529 -0.42721,0.41031 -0.33824,0.41031 0.0198,0 0.18825,-0.16842 0.37428,-0.37428 z m 0.9213,-0.92129 0.33824,-0.37428 -0.37428,0.33824 c -0.34888,0.31529 -0.42721,0.41031 -0.33824,0.41031 0.0198,0 0.18824,-0.16842 0.37428,-0.37427 z m 0.9213,-0.9213 0.33824,-0.37428 -0.37428,0.33824 c -0.34888,0.31529 -0.42721,0.41031 -0.33824,0.41031 0.0198,0 0.18824,-0.16842 0.37428,-0.37427 z m 0.79889,-0.77735 c 0.11464,-0.12668 0.18253,-0.23032 0.15086,-0.23032 -0.0317,0 -0.15138,0.10364 -0.26603,0.23032 -0.11464,0.12668 -0.18253,0.23033 -0.15086,0.23033 0.0317,0 0.15138,-0.10365 0.26603,-0.23033 z m 9.42033,24.51789 c -0.32933,-0.0549 -1.05486,-0.27481 -1.61227,-0.48858 -4.74279,-1.81883 -6.01132,-2.30905 -6.31095,-2.43884 -0.38359,-0.16615 -10.76813,-4.08626 -15.74147,-5.94231 -1.75382,-0.65453 -3.17332,-1.20551 -3.15443,-1.2244 0.0412,-0.0412 1.38685,-0.26866 3.57931,-0.60492 0.88675,-0.136 2.86905,-0.45061 4.40512,-0.69913 1.53606,-0.24852 2.89786,-0.45185 3.02621,-0.45185 0.12835,0 1.74775,0.56551 3.59866,1.2567 1.85091,0.69119 4.7127,1.75709 6.35952,2.36867 1.64682,0.61159 3.38289,1.26219 3.85793,1.4458 0.47505,0.1836 3.04029,1.141 5.70054,2.12754 6.92599,2.56847 7.07362,2.62641 6.99918,2.74685 -0.0371,0.06 -0.007,0.0721 0.0658,0.0268 0.12314,-0.0761 3.16765,0.96567 3.07956,1.05376 -0.0718,0.0718 -4.46864,0.58963 -6.55152,0.77166 -2.17311,0.1899 -6.29942,0.21946 -7.30123,0.0523 z m -24.21869,-9.71953 c 0.14876,-0.15835 0.24456,-0.28791 0.21289,-0.28791 -0.0317,0 -0.17929,0.12956 -0.32805,0.28791 -0.14876,0.15835 -0.24456,0.2879 -0.21289,0.2879 0.0317,0 0.17929,-0.12955 0.32805,-0.2879 z m 0.63339,-0.63339 c 0.11465,-0.12668 0.18253,-0.23033 0.15086,-0.23033 -0.0317,0 -0.15138,0.10365 -0.26602,0.23033 -0.11464,0.12667 -0.18253,0.23032 -0.15086,0.23032 0.0317,0 0.15138,-0.10365 0.26602,-0.23032 z m 7.19765,-0.96478 c 0,-0.0239 -0.0907,-0.11461 -0.20154,-0.20154 -0.18265,-0.14324 -0.18672,-0.13917 -0.0435,0.0435 0.15045,0.19183 0.24502,0.25284 0.24502,0.15806 z m -73.588711,-3.06591 v -1.26678 h 2.245665 2.245665 v 1.26678 1.26679 h -2.245665 -2.245665 z m 8.867497,0 v -1.26678 h 2.188084 2.188083 v 1.26678 1.26679 H 76.06624 73.878156 Z m 8.82911,1.19002 c -0.04223,-0.0422 -0.07677,-0.61228 -0.07677,-1.26679 v -1.19001 h 2.245665 2.245664 v 1.26678 1.26679 h -2.16889 c -1.192889,0 -2.203438,-0.0346 -2.245664,-0.0768 z m 8.799079,-1.19002 0.01569,-1.26678 h 2.176061 2.176061 v 1.26678 1.26679 h -1.059769 c -1.035106,0 -1.069271,-0.009 -1.468078,-0.37428 l -0.408309,-0.37427 0.338001,0.37427 0.338001,0.37428 h -1.061672 -1.061672 z m 8.859135,0 v -1.26678 h 2.18809 2.18808 v 1.26678 1.26679 h -2.18808 -2.18809 z m 47.6772,0 v -1.26678 h 2.18808 2.18808 v 1.26678 1.26679 h -2.18808 -2.18808 z m 8.86749,0 v -1.26678 h 2.18809 2.18808 v 1.26678 1.26679 h -2.18808 -2.18809 z m 8.75234,0 v -1.26678 h 2.18808 2.18808 v 1.26678 1.26679 h -2.18808 -2.18808 z m 8.86749,0 v -1.26678 h 2.18809 c 2.17323,0 2.18808,0.002 2.18808,0.25169 0,0.13843 -0.1166,0.38422 -0.25911,0.5462 l -0.25912,0.2945 0.25912,-0.21856 0.25911,-0.21855 v 0.93914 0.93915 H 176.71809 174.53 Z m 3.16633,0.80543 c -0.115,-0.12706 -0.23585,-0.20426 -0.26856,-0.17155 -0.0327,0.0327 0.0404,0.13503 0.16244,0.22737 0.31141,0.23559 0.351,0.21477 0.10612,-0.0558 z m 0.23096,-0.45994 c 0.11464,-0.12668 0.18253,-0.23032 0.15086,-0.23032 -0.0317,0 -0.15138,0.10364 -0.26602,0.23032 -0.11464,0.12668 -0.18253,0.23033 -0.15086,0.23033 0.0317,0 0.15138,-0.10365 0.26602,-0.23033 z m -0.63339,0.0754 c 0,-0.0219 -0.1166,-0.13845 -0.25912,-0.25911 l -0.25911,-0.21939 0.21938,0.25912 c 0.20617,0.2435 0.29885,0.31154 0.29885,0.21938 z m -0.9213,-0.9213 c 0,-0.0219 -0.1166,-0.13845 -0.25911,-0.25911 l -0.25912,-0.21938 0.21938,0.25911 c 0.20617,0.2435 0.29885,0.31154 0.29885,0.21938 z m 6.90974,0.4979 v -1.26927 l 2.21687,0.0313 2.21688,0.0313 0.0327,1.238 0.0327,1.23799 h -2.24956 -2.24956 z m 8.8675,0.002 v -1.26678 h 2.18808 2.18808 v 1.26678 1.26679 h -2.18808 -2.18808 z m 8.75233,0 v -1.26678 h 2.24567 2.24566 v 1.26678 1.26679 h -2.24566 -2.24567 z m -88.50223,-2.34542 c -6.11954,-2.46354 -13.070457,-5.41684 -14.855932,-6.31197 -2.560776,-1.28382 -5.068018,-3.26163 -6.382481,-5.03474 -1.577035,-2.12731 -2.310655,-4.89504 -1.973513,-7.44549 0.763623,-5.77675 4.450636,-9.600926 10.328264,-10.712503 1.331622,-0.251835 3.870392,-0.249766 5.340532,0.0044 2.92402,0.505429 6.11264,2.012065 8.25937,3.902593 1.64874,1.45196 2.76417,2.9352 3.72128,4.94833 0.76848,1.61637 1.05078,2.78469 1.12014,4.63584 0.0671,1.79109 -0.11817,2.90599 -0.74412,4.4778 -0.82857,2.08055 -1.91689,3.51592 -3.51482,4.63562 -0.49882,0.34953 -0.89145,0.64928 -0.87251,0.6661 0.019,0.0168 1.25229,0.53572 2.74076,1.1531 1.48847,0.61739 3.22454,1.34069 3.85793,1.60735 0.6334,0.26666 1.76055,0.73647 2.50478,1.04403 0.74424,0.30755 1.3528,0.58789 1.35237,0.62297 -5.9e-4,0.0471 -7.10926,2.93631 -7.58145,3.08137 -0.0418,0.0129 -1.5271,-0.56079 -3.3006,-1.27475 z m -4.66275,-7.48065 c 3.36112,-0.86227 5.67119,-2.93494 6.69698,-6.00874 0.36168,-1.0838 0.38715,-3.61466 0.0481,-4.77924 -1.20878,-4.15186 -4.89307,-7.39007 -9.51029,-8.35881 -1.42012,-0.297948 -3.76748,-0.276505 -5.092124,0.0465 -1.956996,0.47723 -3.363066,1.22403 -4.665585,2.47802 -1.464712,1.41013 -2.275455,3.00478 -2.559334,5.03396 -0.334941,2.39417 0.637945,5.33263 2.476444,7.47973 3.054391,3.56708 8.190869,5.24119 12.605809,4.10856 z"
       id="path1" /></g></svg>
