<svg class="svg-icon" style="width: 1em; height: 1em;vertical-align: middle;fill: currentColor;overflow: hidden;" viewBox="0 0 1024 1024" version="1.1" xmlns="http://www.w3.org/2000/svg"><path d="M747.1 116.6H280.9c-90.1 0-163.5 73.4-163.5 163.5v466.2c0 90.1 73.4 163.5 163.5 163.5h466.2c90.1 0 164.1-73.4 163.5-163.5V280.1c0-90.2-73.3-163.5-163.5-163.5z m-363 713.6H233.6c-20.5 0-37.9-16.8-38.5-38.5V641.3c0-21.1 16.8-37.9 37.9-37.9 10.6 0 19.9 4.4 26.7 11.2 6.8 6.8 11.2 16.8 11.2 26.7v58.4l136.2-136.2c14.9-14.9 39.2-14.9 54.1 0 14.9 14.9 14.9 39.2 0 54.1L325 753.8h58.4c21.1 0 37.9 16.8 37.9 37.9s-16.1 38.5-37.2 38.5z m257.5-642.8H792c20.5 0 37.9 16.8 38.5 38.5v150.4c0 21.1-16.8 37.9-37.9 37.9-10.6 0-19.9-4.4-26.7-11.2-6.8-6.8-11.2-16.8-11.2-26.7V318L618.5 454.2c-14.9 14.9-39.2 14.9-54.1 0-14.9-14.9-14.9-39.2 0-54.1l136.2-136.2h-58.4c-21.1 0-37.9-16.8-37.9-37.9s16.1-38.6 37.3-38.6z"  /></svg>