<?xml version="1.0" encoding="UTF-8" standalone="no"?>
<svg
   xmlns:dc="http://purl.org/dc/elements/1.1/"
   xmlns:cc="http://creativecommons.org/ns#"
   xmlns:rdf="http://www.w3.org/1999/02/22-rdf-syntax-ns#"
   xmlns:svg="http://www.w3.org/2000/svg"
   xmlns="http://www.w3.org/2000/svg"
   height="90"
   width="52.200001"
   version="1.1"
   id="svg2"
   viewBox="0 0 52.200001 90">
  <metadata
     id="metadata10">
    <rdf:RDF>
      <cc:Work
         rdf:about="">
        <dc:format>image/svg+xml</dc:format>
        <dc:type
           rdf:resource="http://purl.org/dc/dcmitype/StillImage" />
        <dc:title></dc:title>
      </cc:Work>
    </rdf:RDF>
  </metadata>
  <defs
     id="defs8" />
  <path
     style="fill:#ffffff"
     id="path4"
     d="m 10.07,90 32.05,0 c 5.565,0 10.08,-4.279 10.08,-9.569 l 0,-70.855 C 52.2,4.291 47.687,0 42.13,0 L 10.08,0 C 4.516,0 0,4.291 0,9.576 L 0,80.43 C 0,85.718 4.513,90 10.08,90 m 16.03,-3.257 c -2.493,0 -4.506,-2.02 -4.506,-4.498 0,-2.489 2.01,-4.502 4.506,-4.502 2.487,0 4.494,2.01 4.494,4.502 0,2.481 -2.01,4.498 -4.494,4.498 m -6.868,-80.911 13.727,0 c 0.556,0 1.01,0.383 1.01,0.852 0,0.471 -0.452,0.854 -1.01,0.854 l -13.727,0 c -0.55,0 -1.01,-0.383 -1.01,-0.854 -10e-5,-0.469 0.454,-0.852 1.01,-0.852 M 3.953,16.63 c 0,-0.794 0.675,-1.438 1.508,-1.438 l 41.29,0 c 0.835,0 1.507,0.641 1.507,1.438 l 0,56.49 c 0,0.791 -0.672,1.433 -1.507,1.433 l -41.29,0 c -0.833,0 -1.508,-0.642 -1.508,-1.433 l 0,-56.49" />
</svg>
