<?xml version="1.0" encoding="UTF-8" standalone="no"?>
<!-- Created with Inkscape (http://www.inkscape.org/) -->

<svg
   width="30.000231mm"
   height="30.000237mm"
   viewBox="0 0 30.00023 30.000237"
   version="1.1"
   id="svg1"
   inkscape:version="1.4 (86a8ad7, 2024-10-11)"
   sodipodi:docname="raos-manual.svg"
   xmlns:inkscape="http://www.inkscape.org/namespaces/inkscape"
   xmlns:sodipodi="http://sodipodi.sourceforge.net/DTD/sodipodi-0.dtd"
   xmlns="http://www.w3.org/2000/svg"
   xmlns:svg="http://www.w3.org/2000/svg">
  <sodipodi:namedview
     id="namedview1"
     pagecolor="#6e0054"
     bordercolor="#000000"
     borderopacity="0.25"
     inkscape:showpageshadow="2"
     inkscape:pageopacity="0.0"
     inkscape:pagecheckerboard="0"
     inkscape:deskcolor="#d1d1d1"
     inkscape:document-units="mm"
     showgrid="true"
     inkscape:zoom="4.1071317"
     inkscape:cx="132.08732"
     inkscape:cy="69.513232"
     inkscape:window-width="1920"
     inkscape:window-height="1017"
     inkscape:window-x="-8"
     inkscape:window-y="-8"
     inkscape:window-maximized="1"
     inkscape:current-layer="layer2">
    <inkscape:grid
       id="grid1"
       units="mm"
       originx="-119.99984"
       originy="-19.999842"
       spacingx="0.99999998"
       spacingy="1"
       empcolor="#0099e5"
       empopacity="0.30196078"
       color="#0099e5"
       opacity="0.14901961"
       empspacing="5"
       enabled="true"
       visible="true" />
  </sodipodi:namedview>
  <defs
     id="defs1" />
  <g
     inkscape:groupmode="layer"
     id="layer2"
     inkscape:label="Calque 2"
     transform="translate(-119.99984,-19.999841)">
    <path
       id="rect3"
       style="fill:#ffffff;stroke:#000000;stroke-width:0"
       d="M 119.99984 19.999841 L 119.99984 50.000077 L 150.00008 50.000077 L 150.00008 19.999841 L 119.99984 19.999841 z M 133.69564 22.235363 C 134.18255 22.235363 134.61141 22.298065 134.98239 22.423466 C 135.35668 22.548867 135.66827 22.741793 135.9167 23.002242 C 136.16843 23.26269 136.3572 23.5921 136.48307 23.990812 C 136.61225 24.386309 136.67686 24.854154 136.67686 25.394344 C 136.67686 25.912026 136.6104 26.375048 136.4779 26.783406 C 136.34541 27.191764 136.14839 27.539031 135.88673 27.825203 C 135.62505 28.10816 135.30068 28.325201 134.91314 28.476326 C 134.52891 28.624235 134.08358 28.698535 133.57679 28.698535 C 133.07663 28.698535 132.63901 28.635834 132.26472 28.510433 C 131.89374 28.381816 131.584 28.186938 131.33558 27.926489 C 131.08715 27.66604 130.90024 27.335195 130.77438 26.933268 C 130.65182 26.531341 130.59041 26.055284 130.59041 25.505448 C 130.59041 25.000628 130.65687 24.547252 130.78936 24.145324 C 130.92185 23.740181 131.11887 23.396303 131.38054 23.113346 C 131.64222 22.830389 131.96525 22.613347 132.34947 22.462223 C 132.73702 22.311098 133.18555 22.235363 133.69564 22.235363 z M 122.49168 22.346468 L 123.34589 22.346468 C 123.49825 22.346468 123.62932 22.358986 123.73863 22.384708 C 123.84793 22.407218 123.94232 22.447755 124.02182 22.505631 C 124.10131 22.560294 124.16725 22.634076 124.22025 22.727323 C 124.27323 22.817355 124.32002 22.929722 124.35978 23.06477 L 125.75091 26.783406 L 125.77055 26.783406 L 127.21129 23.074589 C 127.25432 22.939541 127.30111 22.825221 127.35081 22.731974 C 127.40379 22.638727 127.46335 22.563509 127.52961 22.505631 C 127.59917 22.44775 127.68026 22.407213 127.77301 22.384708 C 127.86576 22.358986 127.97343 22.346468 128.09599 22.346468 L 128.97552 22.346468 C 129.06496 22.346468 129.141 22.357547 129.20393 22.380057 C 129.27017 22.402567 129.32334 22.436329 129.36309 22.481343 C 129.40613 22.523145 129.43725 22.5762 129.45714 22.640507 C 129.48035 22.7016 129.49228 22.772511 129.49228 22.852897 L 129.49228 28.413798 C 129.49228 28.44595 129.48272 28.474886 129.46283 28.500614 C 129.44625 28.526336 129.41276 28.547063 129.36309 28.563143 C 129.31674 28.579222 129.25399 28.592257 129.17447 28.6019 C 129.09498 28.611549 128.99369 28.616369 128.87113 28.616369 C 128.75189 28.616369 128.65297 28.611549 128.57348 28.6019 C 128.49398 28.592251 128.43071 28.579216 128.38434 28.563143 C 128.33799 28.547063 128.30502 28.526336 128.28512 28.500614 C 128.26523 28.474892 128.25515 28.445957 128.25515 28.413798 L 128.25515 23.335038 L 128.24533 23.335038 L 126.38188 28.409147 C 126.36862 28.450948 126.34706 28.486146 126.31728 28.515084 C 126.28744 28.540805 126.24623 28.561532 126.19326 28.577612 C 126.1436 28.593691 126.07899 28.603339 125.99947 28.606551 C 125.91998 28.612988 125.82374 28.616369 125.71112 28.616369 C 125.5985 28.616369 125.50278 28.611549 125.42328 28.6019 C 125.34379 28.595463 125.27733 28.584383 125.22433 28.56831 C 125.17466 28.549019 125.13479 28.526336 125.10495 28.500614 C 125.07518 28.474892 125.05547 28.444518 125.04553 28.409147 L 123.24667 23.335038 L 123.23685 23.335038 L 123.23685 28.413798 C 123.23685 28.44595 123.22677 28.474886 123.20688 28.500614 C 123.1903 28.526336 123.15733 28.547063 123.10766 28.563143 C 123.058 28.579222 122.99339 28.592257 122.91387 28.6019 C 122.83769 28.611549 122.73825 28.616369 122.6157 28.616369 C 122.49646 28.616369 122.39703 28.611549 122.31753 28.6019 C 122.23804 28.592251 122.17343 28.579216 122.12374 28.563143 C 122.07739 28.547063 122.04442 28.526336 122.02452 28.500614 C 122.00794 28.474892 121.99972 28.445957 121.99972 28.413798 L 121.99972 22.852897 C 121.99972 22.68891 122.04412 22.563509 122.13356 22.476692 C 122.22299 22.389876 122.34262 22.346468 122.49168 22.346468 z M 138.16256 22.346468 L 139.81207 22.346468 C 140.3851 22.346468 140.87032 22.41204 141.26779 22.543872 C 141.66859 22.672489 142.00491 22.865415 142.27652 23.122648 C 142.55143 23.376666 142.75989 23.692123 142.90232 24.068327 C 143.04475 24.44453 143.11626 24.880049 143.11626 25.375223 C 143.11626 25.947568 143.03836 26.438094 142.88268 26.846452 C 142.73032 27.251595 142.50991 27.582439 142.22174 27.839673 C 141.93357 28.096906 141.58262 28.286961 141.16857 28.409147 C 140.75785 28.528117 140.26758 28.587431 139.69786 28.587431 L 138.16256 28.587431 C 138.05324 28.587431 137.9602 28.557056 137.88402 28.495963 C 137.81115 28.431652 137.77498 28.328413 137.77498 28.186938 L 137.77498 22.746443 C 137.77498 22.604965 137.81115 22.50368 137.88402 22.442586 C 137.9602 22.378275 138.05324 22.346468 138.16256 22.346468 z M 144.57663 22.346468 L 147.78626 22.346468 C 147.8161 22.346468 147.8427 22.354159 147.86584 22.370239 C 147.88905 22.386318 147.90876 22.41526 147.92527 22.457055 C 147.94184 22.495638 147.95378 22.547257 147.96041 22.611568 C 147.97035 22.672661 147.97539 22.751267 147.97539 22.847729 C 147.97539 22.937761 147.97035 23.014931 147.96041 23.07924 C 147.95364 23.140333 147.94171 23.190516 147.92527 23.229101 C 147.90869 23.267684 147.88898 23.296626 147.86584 23.315918 C 147.84263 23.331997 147.81603 23.339689 147.78626 23.339689 L 145.49079 23.339689 L 145.49079 24.864144 L 147.43382 24.864144 C 147.46366 24.864144 147.48975 24.873791 147.51289 24.893082 C 147.53941 24.909162 147.56097 24.936148 147.57748 24.974731 C 147.59406 25.010102 147.60599 25.060286 147.61262 25.124593 C 147.62257 25.185686 147.62761 25.260903 147.62761 25.350936 C 147.62761 25.444182 147.62257 25.521353 147.61262 25.582446 C 147.60586 25.643539 147.59393 25.693723 147.57748 25.732308 C 147.56091 25.767679 147.53935 25.793233 147.51289 25.809306 C 147.48968 25.825385 147.4636 25.833593 147.43382 25.833593 L 145.49079 25.833593 L 145.49079 27.593693 L 147.80641 27.593693 C 147.83618 27.593693 147.86278 27.60334 147.88599 27.622632 C 147.91252 27.638711 147.93356 27.666214 147.95007 27.704797 C 147.96665 27.74338 147.97858 27.794999 147.98521 27.85931 C 147.99516 27.920403 148.0002 27.997573 148.0002 28.09082 C 148.0002 28.184067 147.99516 28.262673 147.98521 28.326981 C 147.97845 28.388074 147.96651 28.437741 147.95007 28.476326 C 147.93349 28.514909 147.91245 28.543851 147.88599 28.563143 C 147.86278 28.579222 147.83618 28.587431 147.80641 28.587431 L 144.57663 28.587431 C 144.46733 28.587431 144.3748 28.557056 144.29862 28.495963 C 144.22574 28.431652 144.18906 28.328413 144.18906 28.186938 L 144.18906 22.746443 C 144.18906 22.604965 144.22574 22.50368 144.29862 22.442586 C 144.3748 22.378275 144.46733 22.346468 144.57663 22.346468 z M 133.6512 23.27716 C 133.32991 23.27716 133.06138 23.336473 132.84608 23.455444 C 132.63078 23.571199 132.45716 23.727492 132.32467 23.923633 C 132.19218 24.119774 132.09779 24.349332 132.04148 24.612996 C 131.9885 24.873445 131.9619 25.150317 131.9619 25.44292 C 131.9619 25.783754 131.9885 26.090483 132.04148 26.363794 C 132.09446 26.633889 132.18379 26.8654 132.30968 27.058325 C 132.43555 27.25125 132.60464 27.399332 132.81663 27.502225 C 133.02862 27.601903 133.29477 27.65157 133.61606 27.65157 C 133.93736 27.65157 134.20588 27.593692 134.42118 27.477938 C 134.63649 27.362182 134.81062 27.204971 134.94311 27.005615 C 135.07561 26.806259 135.16814 26.574748 135.22113 26.311084 C 135.27743 26.044204 135.30537 25.761073 135.30537 25.46204 C 135.30537 25.134067 135.27928 24.836468 135.2263 24.569588 C 135.17332 24.299493 135.08213 24.069934 134.95293 23.880224 C 134.82706 23.687299 134.65798 23.539217 134.44599 23.436324 C 134.234 23.330215 133.96918 23.27716 133.6512 23.27716 z M 139.07671 23.339689 L 139.07671 27.584391 L 139.75729 27.584391 C 140.11502 27.584391 140.41652 27.539031 140.66163 27.448999 C 140.90674 27.358967 141.11066 27.223919 141.27296 27.043855 C 141.43858 26.860577 141.56089 26.633889 141.64038 26.363794 C 141.72319 26.093699 141.7644 25.778759 141.7644 25.418632 C 141.7644 25.122813 141.72823 24.847894 141.65537 24.593876 C 141.58581 24.339858 141.47122 24.119428 141.31223 23.932934 C 141.15655 23.74644 140.9545 23.601746 140.70607 23.498852 C 140.46096 23.392744 140.13844 23.339689 139.73765 23.339689 L 139.07671 23.339689 z M 126.44389 29.898462 C 126.51427 29.898462 126.57267 29.903288 126.61959 29.912931 C 126.6665 29.919398 126.70496 29.930477 126.73483 29.946521 C 126.76469 29.962597 126.78609 29.983322 126.79891 30.009049 C 126.81172 30.034768 126.8171 30.065655 126.81493 30.101033 L 126.74103 32.256974 C 126.74103 32.292344 126.73617 32.322714 126.72553 32.348441 C 126.71489 32.374161 126.69782 32.394885 126.67437 32.41097 C 126.65091 32.427046 126.61975 32.440084 126.58135 32.449727 C 126.54508 32.456194 126.49933 32.459546 126.44389 32.459546 C 126.38631 32.459546 126.33811 32.454719 126.29971 32.445076 C 126.26344 32.435434 126.23376 32.422404 126.21031 32.406319 C 126.18686 32.390242 126.1698 32.369518 126.15915 32.34379 C 126.15063 32.318063 126.14525 32.289127 126.14313 32.256974 L 126.06975 30.101033 C 126.06758 30.06888 126.07244 30.039944 126.08526 30.014217 C 126.10019 29.988498 126.12257 29.967256 126.15244 29.951172 C 126.1823 29.931878 126.22075 29.919365 126.26767 29.912931 C 126.3167 29.903288 126.37562 29.898462 126.44389 29.898462 z M 144.52909 30.293786 C 144.84262 30.293786 145.11859 30.356486 145.35747 30.481889 C 145.59847 30.60729 145.79902 30.800215 145.95898 31.060665 C 146.12107 31.321115 146.24277 31.650521 146.32381 32.049235 C 146.40699 32.444733 146.44835 32.912574 146.44835 33.452767 C 146.44835 33.970451 146.40551 34.433469 146.3202 34.841829 C 146.23488 35.250189 146.10835 35.597453 145.93986 35.883626 C 145.77137 36.166584 145.56205 36.383623 145.31251 36.534749 C 145.0651 36.682659 144.77842 36.756958 144.45209 36.756958 C 144.13004 36.756958 143.84871 36.694257 143.6077 36.568855 C 143.36883 36.440238 143.16925 36.245362 143.00929 35.984912 C 142.84933 35.724462 142.7286 35.39362 142.64755 34.991691 C 142.56864 34.589762 142.52921 34.11371 142.52921 33.563871 C 142.52921 33.059048 142.57206 32.605676 142.65737 32.203747 C 142.74268 31.798602 142.86973 31.454727 143.03823 31.171769 C 143.20672 30.88881 143.41456 30.671771 143.66196 30.520646 C 143.9115 30.36952 144.20064 30.293786 144.52909 30.293786 z M 140.49161 30.375952 C 140.57479 30.375952 140.64293 30.380779 140.69625 30.390421 C 140.74957 30.400064 140.7919 30.412585 140.82389 30.428662 C 140.85587 30.444738 140.87826 30.46598 140.89107 30.491707 C 140.906 30.517435 140.91381 30.54637 140.91381 30.578523 L 140.91381 35.599406 L 142.21606 35.599406 C 142.23739 35.599406 142.25538 35.609051 142.27032 35.628344 C 142.28736 35.644421 142.30096 35.673357 142.31166 35.715161 C 142.3223 35.753748 142.3301 35.806802 142.33439 35.874324 C 142.3408 35.938631 142.3437 36.018671 142.3437 36.115136 C 142.3437 36.211599 142.3408 36.293592 142.33439 36.361116 C 142.33005 36.425423 142.32224 36.480429 142.31166 36.525447 C 142.30101 36.567251 142.28742 36.597629 142.27032 36.616915 C 142.25538 36.636208 142.23688 36.645853 142.21554 36.645853 L 140.3185 36.645853 C 140.24811 36.645853 140.18875 36.615475 140.1397 36.554386 C 140.09278 36.49008 140.0689 36.386842 140.0689 36.245361 L 140.0689 30.578523 C 140.0689 30.54637 140.07572 30.517435 140.08854 30.491707 C 140.10347 30.465988 140.12684 30.444747 140.15882 30.428662 C 140.1908 30.412585 140.23312 30.400064 140.28646 30.390421 C 140.34191 30.380779 140.41057 30.375952 140.49161 30.375952 z M 147.57748 30.375952 C 147.66066 30.375952 147.72932 30.380779 147.78264 30.390421 C 147.83596 30.400064 147.87829 30.412585 147.91028 30.428662 C 147.94226 30.444738 147.96465 30.46598 147.97746 30.491707 C 147.99239 30.517435 148.0002 30.54637 148.0002 30.578523 L 148.0002 36.472221 C 148.0002 36.504374 147.99239 36.53331 147.97746 36.559037 C 147.96465 36.584756 147.94226 36.605481 147.91028 36.621565 C 147.8783 36.637642 147.83597 36.650672 147.78264 36.660323 C 147.72932 36.669965 147.66067 36.674792 147.57748 36.674792 C 147.49644 36.674792 147.4283 36.669965 147.37285 36.660323 C 147.31953 36.65068 147.2772 36.63765 147.24521 36.621565 C 147.21323 36.605489 147.18934 36.584764 147.17441 36.559037 C 147.16159 36.533318 147.15529 36.504382 147.15529 36.472221 L 147.15529 30.578523 C 147.15529 30.54637 147.16159 30.517435 147.17441 30.491707 C 147.18934 30.465988 147.21323 30.444747 147.24521 30.428662 C 147.2793 30.412585 147.3226 30.400064 147.37595 30.390421 C 147.42927 30.380779 147.49643 30.375952 147.57748 30.375952 z M 122.24932 30.404891 L 123.31178 30.404891 C 123.68075 30.404891 123.99325 30.470462 124.24919 30.602295 C 124.50727 30.730912 124.72336 30.923836 124.89825 31.181071 C 125.07527 31.43509 125.21013 31.750544 125.30184 32.126749 C 125.39355 32.502955 125.4393 32.93847 125.4393 33.433646 C 125.4393 34.005993 125.38916 34.496514 125.28892 34.904874 C 125.19081 35.310018 125.04866 35.64086 124.86311 35.898095 C 124.67756 36.15533 124.45172 36.345384 124.18511 36.46757 C 123.92065 36.586541 123.60473 36.645853 123.23789 36.645853 L 122.24932 36.645853 C 122.17893 36.645853 122.11957 36.615475 122.07051 36.554386 C 122.0236 36.49008 122.00023 36.386842 122.00023 36.245361 L 122.00023 30.804866 C 122.00023 30.663387 122.0236 30.562102 122.07051 30.501009 C 122.11954 30.436702 122.17891 30.404891 122.24932 30.404891 z M 127.90892 30.404891 L 129.97546 30.404891 C 129.99462 30.404891 130.01169 30.412585 130.02662 30.428662 C 130.04155 30.444738 130.05473 30.473674 130.06538 30.515478 C 130.07602 30.554065 130.08331 30.605684 130.0876 30.669991 C 130.094 30.731088 130.0969 30.809693 130.0969 30.906152 C 130.0969 30.996184 130.094 31.073354 130.0876 31.137662 C 130.08325 31.198752 130.07596 31.248935 130.06538 31.287524 C 130.05473 31.326111 130.04155 31.355047 130.02662 31.374341 C 130.01169 31.390417 129.99462 31.398112 129.97546 31.398112 L 128.49751 31.398112 L 128.49751 32.922566 L 129.7486 32.922566 C 129.76782 32.922566 129.78488 32.932212 129.79976 32.951505 C 129.81681 32.967582 129.8304 32.994567 129.8411 33.033154 C 129.85174 33.068524 129.85955 33.118708 129.86384 33.183016 C 129.87024 33.244113 129.87314 33.319331 129.87314 33.409358 C 129.87314 33.502607 129.87024 33.579776 129.86384 33.640869 C 129.85949 33.701966 129.85169 33.752149 129.8411 33.79073 C 129.83046 33.826101 129.81686 33.851652 129.79976 33.867728 C 129.78483 33.883805 129.76777 33.892016 129.7486 33.892016 L 128.49751 33.892016 L 128.49751 35.652116 L 129.98838 35.652116 C 130.0076 35.652116 130.02466 35.661761 130.03954 35.681054 C 130.05659 35.697131 130.0707 35.724633 130.0814 35.76322 C 130.09204 35.801807 130.09933 35.853426 130.10362 35.917732 C 130.11002 35.97883 130.11343 36.055999 130.11343 36.149243 C 130.11343 36.24249 130.11002 36.321095 130.10362 36.385404 C 130.09927 36.446494 130.09198 36.49616 130.0814 36.534749 C 130.07075 36.573336 130.05664 36.602272 130.03954 36.621565 C 130.02461 36.637642 130.00754 36.645853 129.98838 36.645853 L 127.90892 36.645853 C 127.83853 36.645853 127.77865 36.615475 127.7296 36.554386 C 127.68269 36.49008 127.65932 36.386842 127.65932 36.245361 L 127.65932 30.804866 C 127.65932 30.663387 127.68269 30.562102 127.7296 30.501009 C 127.77863 30.436702 127.83851 30.404891 127.90892 30.404891 z M 131.17177 30.404891 L 131.72212 30.404891 C 131.82023 30.404891 131.90444 30.417412 131.97482 30.443131 C 132.0452 30.465642 132.10605 30.506182 132.15724 30.564054 C 132.20844 30.618718 132.25076 30.6925 132.28488 30.785746 C 132.31898 30.875778 132.34917 30.988145 132.3748 31.123193 L 133.27035 34.841829 L 133.28327 34.841829 L 134.21086 31.133012 C 134.2386 30.997964 134.2688 30.883644 134.30078 30.790397 C 134.33493 30.697149 134.37287 30.621931 134.4155 30.564054 C 134.46029 30.506173 134.51288 30.465634 134.57259 30.443131 C 134.63231 30.417412 134.70142 30.404891 134.78033 30.404891 L 135.34671 30.404891 C 135.40429 30.404891 135.45346 30.41597 135.49398 30.43848 C 135.53666 30.460991 135.57073 30.494753 135.5963 30.539766 C 135.62405 30.58157 135.64401 30.634624 135.65677 30.69893 C 135.6717 30.760027 135.6795 30.830938 135.6795 30.91132 L 135.68002 36.472221 C 135.68002 36.504374 135.6732 36.53331 135.66038 36.559037 C 135.64969 36.584756 135.6288 36.605481 135.59682 36.621565 C 135.56696 36.637642 135.52605 36.650672 135.47486 36.660323 C 135.42366 36.669965 135.35894 36.674792 135.28004 36.674792 C 135.20326 36.674792 135.13899 36.669965 135.08781 36.660323 C 135.03661 36.65068 134.99621 36.63765 134.96637 36.621565 C 134.93651 36.605489 134.9151 36.584764 134.90229 36.559037 C 134.88948 36.533318 134.88317 36.504382 134.88317 36.472221 L 134.88317 31.393461 L 134.87645 31.393461 L 133.67704 36.46757 C 133.66852 36.509374 133.6544 36.54457 133.63518 36.573506 C 133.61602 36.599234 133.58924 36.619958 133.55508 36.636035 C 133.5231 36.652111 133.48175 36.661757 133.43054 36.664974 C 133.37934 36.67144 133.31753 36.674792 133.24503 36.674792 C 133.17251 36.674792 133.11069 36.669965 133.05951 36.660323 C 133.00831 36.653856 132.96546 36.642777 132.93135 36.626733 C 132.89937 36.60744 132.87409 36.584756 132.85487 36.559037 C 132.83565 36.533318 132.82246 36.502948 132.81611 36.46757 L 131.65804 31.393461 L 131.65184 31.393461 L 131.65184 36.472221 C 131.65184 36.504374 131.64502 36.53331 131.6322 36.559037 C 131.62156 36.584756 131.60068 36.605481 131.56864 36.621565 C 131.53666 36.637642 131.49478 36.650672 131.44359 36.660323 C 131.3945 36.669965 131.33075 36.674792 131.25187 36.674792 C 131.17509 36.674792 131.11082 36.669965 131.05963 36.660323 C 131.00843 36.65068 130.96707 36.63765 130.93509 36.621565 C 130.90523 36.605489 130.88382 36.584764 130.87101 36.559037 C 130.86037 36.533318 130.85499 36.504382 130.85499 36.472221 L 130.85499 30.91132 C 130.85499 30.747333 130.88371 30.621932 130.94129 30.535115 C 130.99888 30.448298 131.07579 30.404891 131.17177 30.404891 z M 136.86651 30.404891 L 137.84268 30.404891 C 137.94079 30.404891 138.03325 30.411151 138.1207 30.424011 C 138.21028 30.433654 138.31687 30.457771 138.44057 30.496358 C 138.56428 30.531728 138.68939 30.599251 138.81523 30.69893 C 138.9432 30.798608 139.05173 30.925444 139.14131 31.079785 C 139.23088 31.230911 139.29902 31.409366 139.34595 31.615153 C 139.39286 31.817725 139.41674 32.046363 139.41674 32.300382 C 139.41674 32.650865 139.38022 32.960979 139.30771 33.231075 C 139.23519 33.501171 139.12956 33.729292 138.99093 33.915787 C 138.8523 34.099067 138.68195 34.238937 138.47933 34.3354 C 138.27885 34.431864 138.04178 34.480094 137.76878 34.480094 L 137.42358 34.480094 L 137.42358 36.472221 C 137.42358 36.504374 137.41578 36.53331 137.40085 36.559037 C 137.38803 36.584756 137.36565 36.605481 137.33367 36.621565 C 137.30169 36.637642 137.25935 36.650672 137.20602 36.660323 C 137.15271 36.669965 137.08405 36.674792 137.00087 36.674792 C 136.91982 36.674792 136.85169 36.669965 136.79623 36.660323 C 136.74291 36.65068 136.70058 36.63765 136.66859 36.621565 C 136.63661 36.605489 136.61422 36.584764 136.60141 36.559037 C 136.5886 36.533318 136.58177 36.504382 136.58177 36.472221 L 136.58177 30.858093 C 136.58177 30.706967 136.60757 30.594601 136.65877 30.520646 C 136.71209 30.443472 136.7812 30.404891 136.86651 30.404891 z M 144.50015 31.335583 C 144.29327 31.335583 144.12047 31.394895 143.98184 31.513867 C 143.84321 31.629622 143.73126 31.785914 143.64594 31.982055 C 143.56063 32.178197 143.49978 32.407754 143.46352 32.671419 C 143.42943 32.931869 143.41236 33.208738 143.41236 33.501342 C 143.41236 33.842178 143.42943 34.148905 143.46352 34.422216 C 143.49762 34.692313 143.55505 34.923822 143.63612 35.116748 C 143.71717 35.309673 143.82622 35.457754 143.96272 35.560648 C 144.09922 35.660326 144.27105 35.709993 144.47793 35.709993 C 144.68482 35.709993 144.85761 35.652116 144.99625 35.53636 C 145.13488 35.420605 145.24683 35.263395 145.33214 35.064038 C 145.41746 34.864682 145.47682 34.633172 145.51094 34.369507 C 145.54721 34.102626 145.56572 33.819498 145.56572 33.520463 L 145.5652 33.520463 C 145.5652 33.192488 145.54814 32.894891 145.51404 32.628011 C 145.47995 32.357914 145.42155 32.128357 145.33835 31.938647 C 145.2573 31.745721 145.14825 31.59764 145.01175 31.494747 C 144.87525 31.388637 144.7049 31.335583 144.50015 31.335583 z M 137.42358 31.383642 L 137.42358 33.501342 L 137.80082 33.501342 C 137.93519 33.501342 138.04714 33.473841 138.13672 33.419177 C 138.22843 33.364513 138.30341 33.288779 138.36099 33.192317 C 138.41858 33.092639 138.46188 32.975449 138.49173 32.840401 C 138.5216 32.702137 138.53669 32.552621 138.53669 32.391849 C 138.53669 32.1732 138.5109 31.99331 138.4597 31.851831 C 138.40849 31.710352 138.34571 31.605679 138.27108 31.538155 C 138.19643 31.470631 138.11758 31.428658 138.0344 31.412581 C 137.95336 31.393288 137.86915 31.383642 137.7817 31.383642 L 137.42358 31.383642 z M 122.83843 31.398112 L 122.83843 35.642814 L 123.27664 35.642814 C 123.50699 35.642814 123.70069 35.597454 123.85852 35.507422 C 124.01635 35.417389 124.14779 35.282342 124.25229 35.102278 C 124.35894 34.918999 124.43779 34.692313 124.48897 34.422216 C 124.54229 34.15212 124.56907 33.837183 124.56907 33.477055 C 124.56907 33.181235 124.5457 32.906318 124.49879 32.652299 C 124.454 32.398279 124.37999 32.177852 124.27762 31.991357 C 124.17737 31.804862 124.04742 31.660169 123.88746 31.557275 C 123.72963 31.451166 123.5218 31.398112 123.26372 31.398112 L 122.83843 31.398112 z " />
  </g>
</svg>
